PathFileType	4	(X/Y/Z)	/Users/niels/Desktop/University/Third Semester/Perception and Action/Exam/Gymnastics Motion Tracking/Code for Gym Tracking/Analyzed Data/Webcam_Backflip/id4_1_pure_Sports2D/id4_1_pure_Sports2D_px_person00.trc
DataRate	CameraRate	NumFrames	NumMarkers	Units	OrigDataRate	OrigDataStartFrame	OrigNumFrames
29.8125	29.8125	12	22	m	29.8125	60	160
Frame#	Time	Hip			RHip			RKnee			RAnkle			RBigToe			RSmallToe			RHeel			LHip			LKnee			LAnkle			LBigToe			LSmallToe			LHeel			Neck			Head			Nose			RShoulder			RElbow			RWrist			LShoulder			LElbow			LWrist		
		X1	Y1	Z1	X2	Y2	Z2	X3	Y3	Z3	X4	Y4	Z4	X5	Y5	Z5	X6	Y6	Z6	X7	Y7	Z7	X8	Y8	Z8	X9	Y9	Z9	X10	Y10	Z10	X11	Y11	Z11	X12	Y12	Z12	X13	Y13	Z13	X14	Y14	Z14	X15	Y15	Z15	X16	Y16	Z16	X17	Y17	Z17	X18	Y18	Z18	X19	Y19	Z19	X20	Y20	Z20	X21	Y21	Z21	X22	Y22	Z22
60	2.012578616352201	0.8287790868256933	-0.37519115526907393	0.0	0.820136794855375	-0.3733017511583568	0.0	0.8485153860462443	-0.4825176118974709	0.0	0.8252526233798344	-0.5936433363136467	0.0	0.8581756380117898	-0.6251252523117559	0.0	0.8447841489181107	-0.6278734484877302	0.0	0.817111507178413	-0.6074099812401413	0.0	0.8386110704792304	-0.37158258380646947	0.0	0.8690697637930735	-0.4800288005497183	0.0	0.8791764420659668	-0.5855547413804797	0.0	0.9052808873100877	-0.6172459584852531	0.0	0.9096138258609897	-0.6092482398073814	0.0	0.8771536383571482	-0.5974280395910035	0.0	0.8486804113349071	-0.23063607032166183	0.0	0.8816797588153326	-0.16306577726513388	0.0	0.8844013994160623	-0.19572629298093674	0.0	0.8370375225603013	-0.23462987238009464	0.0	0.8807428841236183	-0.17468954111218718	0.0	0.9077474067578565	-0.12545136318780833	0.0	0.8641578027626684	-0.2389978292711504	0.0	0.9132005954366761	-0.20099833023479174	0.0	0.958115469352525	-0.1606270161494442	0.0
61	2.0461215932914043	0.8249124676179138	-0.37473085032403586	0.0	0.8167805677567559	-0.37260468377011224	0.0	0.8420294681686084	-0.48194995897742016	0.0	0.8177616310440212	-0.5933203127042216	0.0	0.849720397529657	-0.6251277093137378	0.0	0.8362216882702451	-0.6277838429878322	0.0	0.8097478787427607	-0.607225786780142	0.0	0.8343621744843561	-0.370958714130843	0.0	0.8634536251260428	-0.4793749647547399	0.0	0.8696655740791481	-0.5848922774230226	0.0	0.8932179637076119	-0.6168031788460427	0.0	0.8984472375346952	-0.6084867536955602	0.0	0.8662879609014336	-0.5965908617945546	0.0	0.8421726167007708	-0.23007070779427835	0.0	0.8735478032489645	-0.16218691713882766	0.0	0.8771647778587881	-0.1946242956199727	0.0	0.8320880980264072	-0.23440458821701643	0.0	0.8752251229059774	-0.17288119911626126	0.0	0.9014981502456686	-0.12333301016351374	0.0	0.8568233172656887	-0.23779164451546964	0.0	0.9055349004782679	-0.19756867926762686	0.0	0.948738587882145	-0.15504494020131446	0.0
62	2.079664570230608	0.8208834625930365	-0.3775449934408889	0.0	0.8134421773108319	-0.37547300219732455	0.0	0.8362585773780468	-0.4847946578695689	0.0	0.8114945861226336	-0.5962140909904001	0.0	0.8426039649356343	-0.6293033444870737	0.0	0.8293258769224813	-0.6316761490302961	0.0	0.8032948954241886	-0.6105775824834704	0.0	0.8298568460123327	-0.37402385158676	0.0	0.8568748493340183	-0.4824443154349752	0.0	0.8585770428741927	-0.5879126218804475	0.0	0.8798491716334641	-0.6209757260290876	0.0	0.886130939404443	-0.6123458859536156	0.0	0.8534561884610616	-0.5994791222535271	0.0	0.8354373796233376	-0.23273247569322042	0.0	0.8642031974656699	-0.16448373553096482	0.0	0.8695032043812326	-0.19655540790037873	0.0	0.8269856011858528	-0.23788542755118922	0.0	0.8698549991244943	-0.17526625583314143	0.0	0.896212117960232	-0.1255856122436546	0.0	0.8492938406698143	-0.23969115397965862	0.0	0.8973392259531264	-0.19693559945941655	0.0	0.9387584025219806	-0.15207088531020016	0.0
63	2.113207547169811	0.816859286915724	-0.383805047300719	0.0	0.8102758774527963	-0.3820455054960806	0.0	0.8311062467464634	-0.4912855557647527	0.0	0.8063424041452428	-0.6024258781929334	0.0	0.8364372538862075	-0.6377937828960425	0.0	0.8238594583247936	-0.6396873167831407	0.0	0.7975502298102554	-0.6175727301484681	0.0	0.8251662253289204	-0.3808756293695782	0.0	0.849241572943462	-0.48943909703763877	0.0	0.8461906229250198	-0.5947298057096594	0.0	0.865587662484946	-0.6298846922607785	0.0	0.8728739844830079	-0.6210211441376841	0.0	0.8389150151479087	-0.6062065716786774	0.0	0.8286338990854734	-0.23881367158888772	0.0	0.8540613252748241	-0.17005832964729567	0.0	0.8615365798006751	-0.20169938656524064	0.0	0.8218369436972912	-0.2450445674302316	0.0	0.864608611640132	-0.1820030053055162	0.0	0.8919523189956617	-0.13222024337725088	0.0	0.8414728292502095	-0.24492428066351007	0.0	0.8885256674485429	-0.19928700512588912	0.0	0.928111786674479	-0.15205414914526738	0.0
64	2.1467505241090143	0.8129764681415194	-0.393811284166895	0.0	0.8074405485385782	-0.3925192298253711	0.0	0.8263708911685567	-0.5016748475405086	0.0	0.8020444947755099	-0.6122472414718042	0.0	0.8307353803241817	-0.6504965067000733	0.0	0.8193860698476757	-0.6517427737103152	0.0	0.7923167559324404	-0.6283915748482838	0.0	0.820400408167646	-0.3916080382172606	0.0	0.8406748923321509	-0.5005359752621824	0.0	0.8331069056875651	-0.6054362713725302	0.0	0.8512078333794898	-0.6433077306272188	0.0	0.8591180742831271	-0.6343254703353515	0.0	0.823414047476468	-0.6168715655121414	0.0	0.8220600280720539	-0.24850217871617572	0.0	0.8439822453736573	-0.17894397709667054	0.0	0.8536220221629803	-0.2103545108594243	0.0	0.8168873942367355	-0.2557071411363152	0.0	0.8596016110565664	-0.1928418304430699	0.0	0.888521057761529	-0.14279839893457402	0.0	0.8333810892396432	-0.2537154223919296	0.0	0.8791668901508526	-0.20498385109100867	0.0	0.9169208032203502	-0.15553713302455024	0.0
65	2.180293501048218	0.8092852450245279	-0.4079046254180897	0.0	0.8049826704730195	-0.4070949399795049	0.0	0.8217779167577941	-0.5162016587183659	0.0	0.7981399967767568	-0.6260242806767615	0.0	0.8249566350651073	-0.666980881087598	0.0	0.8151803604152705	-0.6674542620593117	0.0	0.7873952794620519	-0.6431757229499323	0.0	0.8156833408233785	-0.4062983718715897	0.0	0.8315257552930633	-0.5158726636486112	0.0	0.8201159985760562	-0.6200921303141589	0.0	0.837606195154431	-0.660641359036819	0.0	0.8454350502817358	-0.6516118848213623	0.0	0.8081889224785762	-0.6315619892221195	0.0	0.8160526040988898	-0.2619823626179171	0.0	0.8349454433790737	-0.19114527359956515	0.0	0.8462232315718357	-0.2228594253304607	0.0	0.8123706562879673	-0.26971871068613984	0.0	0.8548610428294107	-0.20723835208158012	0.0	0.8853038130055921	-0.156488714046713	0.0	0.8252620636556364	-0.26629805490605324	0.0	0.8695449616944547	-0.2145886449636359	0.0	0.9053928608140684	-0.16308012187800924	0.0
66	2.213836477987421	0.8057621253871432	-0.4263164791463615	0.0	0.8027764895409014	-0.42585940930288535	0.0	0.8170219036496212	-0.5350225368252952	0.0	0.7940332493176586	-0.643989802041901	0.0	0.8186482392775422	-0.6866154861129184	0.0	0.8104626569145998	-0.686255057437697	0.0	0.7825748232113637	-0.6619353948975112	0.0	0.8111016437515716	-0.4249790911604866	0.0	0.8223331429535261	-0.5354650958096568	0.0	0.80788372204705	-0.6387053277344936	0.0	0.825381601467157	-0.681068981079286	0.0	0.8322983619381183	-0.6720072310830042	0.0	0.794478403365993	-0.6503058856464611	0.0	0.8108226586954179	-0.27947358947475315	0.0	0.8276423012334594	-0.20679792097211852	0.0	0.8396970645719111	-0.2395525655664938	0.0	0.80834846872317	-0.2871767722750287	0.0	0.850312173140229	-0.22476024782836604	0.0	0.8815767362041205	-0.17262746047957167	0.0	0.8174256577930549	-0.28295290168383785	0.0	0.8599585407050343	-0.22869859129060705	0.0	0.8936600191082119	-0.17514673807830416	0.0
67	2.2473794549266244	0.8022968686839108	-0.4490192883638828	0.0	0.8005006803302204	-0.44868927022744914	0.0	0.811919401966607	-0.5580444876329242	0.0	0.7892284530091599	-0.6660675615233029	0.0	0.8117269862931041	-0.7087644163504665	0.0	0.8049111249118152	-0.7076012521648999	0.0	0.777656913493795	-0.6844657511596746	0.0	0.8066068419964335	-0.4475872019537499	0.0	0.8136476585116064	-0.5590580521367015	0.0	0.7967261273231651	-0.661181229542937	0.0	0.8147656466863769	-0.7038820425527339	0.0	0.8200846118426707	-0.6948242716802021	0.0	0.7828986561061395	-0.6729661466630352	0.0	0.8063437566492839	-0.3011615571387398	0.0	0.8221699387707061	-0.2262525352542378	0.0	0.8341067679296913	-0.26069565432529074	0.0	0.8046776892367765	-0.3084099245008545	0.0	0.8459350149687966	-0.24535441653227807	0.0	0.8769543622687543	-0.19130985367419404	0.0	0.8100639281504892	-0.3039362344454768	0.0	0.850564797999429	-0.2476501608814292	0.0	0.8817690731188492	-0.19203954790629485	0.0
68	2.280922431865828	0.7987022171167968	-0.4756624766467241	0.0	0.7976820989535383	-0.475217505308505	0.0	0.8065218609369567	-0.5847831100169922	0.0	0.7834844249577797	-0.6916970778404143	0.0	0.8045145046036059	-0.7328043300460374	0.0	0.7987558033314046	-0.7310217434489077	0.0	0.7724436101105372	-0.7101976296575961	0.0	0.8020730342785104	-0.4738721550101259	0.0	0.8059361339907644	-0.5860347384374938	0.0	0.7867355695301983	-0.6871024441944956	0.0	0.805841619741801	-0.728517726474774	0.0	0.8092227047636661	-0.7195989573030539	0.0	0.7733626025593527	-0.6990338276814294	0.0	0.8023913424540832	-0.3270123102616463	0.0	0.8180173983974843	-0.24989577067444046	0.0	0.8291931203374273	-0.2863151988117229	0.0	0.8010735650864923	-0.3336770700842513	0.0	0.8417171790301472	-0.2691990053906235	0.0	0.8713745491193965	-0.2132211727608509	0.0	0.8033243366722852	-0.3292726162886094	0.0	0.8415118539269882	-0.2713552539187366	0.0	0.8698837227861647	-0.21380476753239946	0.0
69	2.314465408805031	0.7948110219610606	-0.5055589640437942	0.0	0.793888709409719	-0.5048201374598882	0.0	0.8010956828666577	-0.6143730489805745	0.0	0.776877507931531	-0.7198030300613291	0.0	0.7974892217894144	-0.7579695932181634	0.0	0.7924190831330957	-0.7559610416310371	0.0	0.7667875278827497	-0.7380367425381936	0.0	0.7975097347369167	-0.5032793153789854	0.0	0.799598291556145	-0.615491399828878	0.0	0.7780160295080052	-0.7155206035813771	0.0	0.7985865041885626	-0.7542969097519675	0.0	0.8000567358242425	-0.7457886770208355	0.0	0.7654639482845433	-0.7274275183769578	0.0	0.7986957203197198	-0.35654855706561944	0.0	0.8144756652291699	-0.27776381119934607	0.0	0.824576295751969	-0.3160143715923527	0.0	0.7972093388826235	-0.3627660535963585	0.0	0.83747499987781	-0.29632185452911847	0.0	0.864838670875819	-0.2387814158606507	0.0	0.7974435599292791	-0.35850044950608795	0.0	0.8331377820598633	-0.2992628309763822	0.0	0.8584697678085299	-0.24004146751140504	0.0
70	2.3480083857442344	0.7905723811463332	-0.5375786874831633	0.0	0.7889991138216544	-0.5365021367378845	0.0	0.7960543448231053	-0.6456017894524287	0.0	0.7698616547024338	-0.7488992664492863	0.0	0.7911245096362233	-0.7832090658521467	0.0	0.7863071124254696	-0.7815284080652325	0.0	0.7607819202835655	-0.7664021784336186	0.0	0.7930624551854806	-0.5347854083652493	0.0	0.7948767324731796	-0.646297444380325	0.0	0.7706510007340678	-0.7450224562886194	0.0	0.792746675388319	-0.7802143467363826	0.0	0.7925004894213501	-0.7725509566205453	0.0	0.7587686257830752	-0.7565860461424161	0.0	0.7950210200705677	-0.38864923305615473	0.0	0.8110499425886349	-0.30911503731945583	0.0	0.8200057928238135	-0.34875287094164464	0.0	0.7928280910543994	-0.394672978070498	0.0	0.8328739181795936	-0.3262858672609093	0.0	0.8574245462109085	-0.26756307646215366	0.0	0.7926100973521555	-0.3904723279885916	0.0	0.825821599388072	-0.33029607165467634	0.0	0.8481390922125912	-0.26974590915456303	0.0
71	2.381551362683438	0.7860637043503994	-0.5699413634415745	0.0	0.7832938442222097	-0.5686413753482134	0.0	0.7918460738043221	-0.6768002856546977	0.0	0.763115930683335	-0.7771652574804959	0.0	0.7858319542817934	-0.8071925297872865	0.0	0.7807700599822223	-0.8063962965574731	0.0	0.7548023129047213	-0.7934258461137342	0.0	0.7888162121741351	-0.5666789146771052	0.0	0.7917637826101674	-0.6769359103585777	0.0	0.7645972307020058	-0.7738349886573691	0.0	0.7879275318362265	-0.8048995428163525	0.0	0.7860718061144133	-0.7986169288748043	0.0	0.7529836995780222	-0.7846799244563077	0.0	0.7911588388363804	-0.4214078495647758	0.0	0.8075666745866084	-0.3421406771455817	0.0	0.8154559116230395	-0.3826207715374661	0.0	0.787835405784222	-0.42748393251610306	0.0	0.8277091905777968	-0.3579204318212313	0.0	0.8494961826141454	-0.2982903440062277	0.0	0.7887719052830487	-0.4232482634316869	0.0	0.8197767591836995	-0.362744030138404	0.0	0.8394308351696458	-0.3012624995323798	0.0
